M48
INCH,TZ
T1C0.016
T2C0.039
%
G90
G05
T1
X37858Y-28658
X37880Y-30236
X37905Y-30553
X38144Y-27595
X38173Y-28664
X38321Y-25593
X38567Y-24228
X38879Y-31527
X38898Y-23976
X39189Y-24433
X39520Y-23106
X39565Y-32213
X39720Y-24197
X40167Y-23002
X53150Y-35039
X53937Y-35039
X54331Y-35039
X54675Y-34972
X55053Y-29215
X55118Y-35039
X55512Y-35039
X55906Y-35669
X56299Y-35433
X56693Y-35039
X57087Y-35039
X57431Y-35023
X57795Y-31575
X57898Y-35031
X58091Y-32665
X58303Y-35063
X58449Y-33689
X58460Y-32677
X58661Y-35039
X58848Y-32283
X59055Y-35039
X59242Y-33120
X59449Y-35039
X59633Y-32849
X59843Y-35039
X60035Y-32677
X60213Y-35000
X60396Y-32685
X60630Y-35039
X60996Y-35012
X61417Y-35039
X61811Y-35039
X62205Y-35039
X62598Y-35039
X62992Y-35039
X63350Y-35173
X63780Y-35039
X64173Y-35039
X64567Y-35039
X64961Y-35039
X65354Y-35039
X65748Y-35039
X66142Y-35039
X67121Y-32677
X75665Y-28701
T2
X40516Y-26637
X40520Y-21890
X40520Y-24138
X41516Y-26637
X41520Y-21890
X41520Y-24138
X42516Y-26637
X42520Y-21890
X42520Y-24138
X43516Y-26637
X43520Y-21890
X43520Y-24138
X44516Y-26637
X44520Y-21890
X44520Y-24138
X45516Y-26637
X45520Y-21890
X45520Y-24138
X46516Y-26637
X46520Y-21890
X46520Y-24138
X47516Y-26637
X47520Y-21890
X47520Y-24138
X48516Y-26637
X48520Y-21890
X48520Y-24138
X49516Y-26637
X49520Y-21890
X49520Y-24138
X50516Y-26637
X50520Y-21890
X50520Y-24138
X51516Y-26637
X51520Y-21890
X51520Y-24138
X52516Y-26637
X52520Y-21890
X52520Y-24138
X53516Y-26637
X53520Y-21890
X53520Y-24138
X54516Y-26637
X54520Y-21890
X54520Y-24138
X55516Y-26637
X55520Y-21890
X55520Y-24138
X58776Y-26638
X58783Y-21890
X58783Y-24138
X59776Y-26638
X59783Y-21890
X59783Y-24138
X60776Y-26638
X60783Y-21890
X60783Y-24138
X61776Y-26638
X61783Y-21890
X61783Y-24138
X62776Y-26638
X62783Y-21890
X62783Y-24138
X63776Y-26638
X63783Y-21890
X63783Y-24138
X64776Y-26638
X64783Y-21890
X64783Y-24138
X65776Y-26638
X65783Y-21890
X65783Y-24138
X66776Y-26638
X66783Y-21890
X66783Y-24138
X67776Y-26638
X67783Y-21890
X67783Y-24138
X68776Y-26638
X68783Y-21890
X68783Y-24138
X69776Y-26638
X69783Y-21890
X69783Y-24138
X70776Y-26638
X70783Y-21890
X70783Y-24138
X71776Y-26638
X71783Y-21890
X71783Y-24138
X72776Y-26638
X72783Y-21890
X72783Y-24138
X73689Y-32461
X73689Y-36925
X73728Y-34780
X73776Y-26638
X73783Y-21890
X73783Y-24138
T0
M30
