G04 #@! TF.FileFunction,Soldermask,Top*
%FSLAX46Y46*%
G04 Gerber Fmt 4.6, Leading zero omitted, Abs format (unit mm)*
G04 Created by KiCad (PCBNEW 4.0.6) date Saturday, April 28, 2018 'AMt' 01:11:43 AM*
%MOMM*%
%LPD*%
G01*
G04 APERTURE LIST*
%ADD10C,0.100000*%
%ADD11R,0.750000X4.040000*%
%ADD12R,1.700000X1.700000*%
%ADD13O,1.700000X1.700000*%
G04 APERTURE END LIST*
D10*
D11*
X122488000Y-83000000D03*
X123488000Y-83000000D03*
X124488000Y-83000000D03*
X125488000Y-83000000D03*
X126488000Y-83000000D03*
X127488000Y-83000000D03*
X128488000Y-83000000D03*
X129488000Y-83000000D03*
X130488000Y-83000000D03*
X131488000Y-83000000D03*
X132488000Y-83000000D03*
X133488000Y-83000000D03*
X134488000Y-83000000D03*
X135488000Y-83000000D03*
X136488000Y-83000000D03*
X137488000Y-83000000D03*
X138488000Y-83000000D03*
X139488000Y-83000000D03*
X140488000Y-83000000D03*
X141488000Y-83000000D03*
X142488000Y-83000000D03*
X143488000Y-83000000D03*
X144488000Y-83000000D03*
X145488000Y-83000000D03*
X146488000Y-83000000D03*
X147488000Y-83000000D03*
X148488000Y-83000000D03*
X149488000Y-83000000D03*
X150488000Y-83000000D03*
X151488000Y-83000000D03*
X152488000Y-83000000D03*
X153488000Y-83000000D03*
X154488000Y-83000000D03*
X155488000Y-83000000D03*
X156488000Y-83000000D03*
X157488000Y-83000000D03*
X158488000Y-83000000D03*
X159488000Y-83000000D03*
X160488000Y-83000000D03*
X161488000Y-83000000D03*
X162488000Y-83000000D03*
X163488000Y-83000000D03*
X164488000Y-83000000D03*
X165488000Y-83000000D03*
X166488000Y-83000000D03*
X167488000Y-83000000D03*
X168488000Y-83000000D03*
X169488000Y-83000000D03*
X170488000Y-83000000D03*
X122000000Y-89000000D03*
X123000000Y-89000000D03*
X124000000Y-89000000D03*
X125000000Y-89000000D03*
X126000000Y-89000000D03*
X127000000Y-89000000D03*
X128000000Y-89000000D03*
X129000000Y-89000000D03*
X130000000Y-89000000D03*
X131000000Y-89000000D03*
X132000000Y-89000000D03*
X133000000Y-89000000D03*
X134000000Y-89000000D03*
X135000000Y-89000000D03*
X136000000Y-89000000D03*
X137000000Y-89000000D03*
X138000000Y-89000000D03*
X139000000Y-89000000D03*
X140000000Y-89000000D03*
X141000000Y-89000000D03*
X142000000Y-89000000D03*
X143000000Y-89000000D03*
X144000000Y-89000000D03*
X145000000Y-89000000D03*
X146000000Y-89000000D03*
X147000000Y-89000000D03*
X148000000Y-89000000D03*
X149000000Y-89000000D03*
X150000000Y-89000000D03*
X151000000Y-89000000D03*
X152000000Y-89000000D03*
X153000000Y-89000000D03*
X154000000Y-89000000D03*
X155000000Y-89000000D03*
X156000000Y-89000000D03*
X157000000Y-89000000D03*
X158000000Y-89000000D03*
X159000000Y-89000000D03*
X160000000Y-89000000D03*
X161000000Y-89000000D03*
X162000000Y-89000000D03*
X163000000Y-89000000D03*
X164000000Y-89000000D03*
X165000000Y-89000000D03*
X166000000Y-89000000D03*
X167000000Y-89000000D03*
X168000000Y-89000000D03*
X169000000Y-89000000D03*
X170000000Y-89000000D03*
X171000000Y-89000000D03*
D12*
X102920000Y-55600000D03*
D13*
X105460000Y-55600000D03*
X108000000Y-55600000D03*
X110540000Y-55600000D03*
X113080000Y-55600000D03*
X115620000Y-55600000D03*
X118160000Y-55600000D03*
X120700000Y-55600000D03*
X123240000Y-55600000D03*
X125780000Y-55600000D03*
X128320000Y-55600000D03*
X130860000Y-55600000D03*
X133400000Y-55600000D03*
X135940000Y-55600000D03*
X138480000Y-55600000D03*
X141020000Y-55600000D03*
D12*
X149310000Y-55600000D03*
D13*
X151850000Y-55600000D03*
X154390000Y-55600000D03*
X156930000Y-55600000D03*
X159470000Y-55600000D03*
X162010000Y-55600000D03*
X164550000Y-55600000D03*
X167090000Y-55600000D03*
X169630000Y-55600000D03*
X172170000Y-55600000D03*
X174710000Y-55600000D03*
X177250000Y-55600000D03*
X179790000Y-55600000D03*
X182330000Y-55600000D03*
X184870000Y-55600000D03*
X187410000Y-55600000D03*
D12*
X187410000Y-61310000D03*
D13*
X184870000Y-61310000D03*
X182330000Y-61310000D03*
X179790000Y-61310000D03*
X177250000Y-61310000D03*
X174710000Y-61310000D03*
X172170000Y-61310000D03*
X169630000Y-61310000D03*
X167090000Y-61310000D03*
X164550000Y-61310000D03*
X162010000Y-61310000D03*
X159470000Y-61310000D03*
X156930000Y-61310000D03*
X154390000Y-61310000D03*
X151850000Y-61310000D03*
X149310000Y-61310000D03*
D12*
X102920000Y-61310280D03*
D13*
X105460000Y-61310280D03*
X108000000Y-61310280D03*
X110540000Y-61310280D03*
X113080000Y-61310280D03*
X115620000Y-61310280D03*
X118160000Y-61310280D03*
X120700000Y-61310280D03*
X123240000Y-61310280D03*
X125780000Y-61310280D03*
X128320000Y-61310280D03*
X130860000Y-61310280D03*
X133400000Y-61310280D03*
X135940000Y-61310280D03*
X138480000Y-61310280D03*
X141020000Y-61310280D03*
D12*
X141010000Y-67657460D03*
D13*
X138470000Y-67657460D03*
X135930000Y-67657460D03*
X133390000Y-67657460D03*
X130850000Y-67657460D03*
X128310000Y-67657460D03*
X125770000Y-67657460D03*
X123230000Y-67657460D03*
X120690000Y-67657460D03*
X118150000Y-67657460D03*
X115610000Y-67657460D03*
X113070000Y-67657460D03*
X110530000Y-67657460D03*
X107990000Y-67657460D03*
X105450000Y-67657460D03*
X102910000Y-67657460D03*
D12*
X187390000Y-67660000D03*
D13*
X184850000Y-67660000D03*
X182310000Y-67660000D03*
X179770000Y-67660000D03*
X177230000Y-67660000D03*
X174690000Y-67660000D03*
X172150000Y-67660000D03*
X169610000Y-67660000D03*
X167070000Y-67660000D03*
X164530000Y-67660000D03*
X161990000Y-67660000D03*
X159450000Y-67660000D03*
X156910000Y-67660000D03*
X154370000Y-67660000D03*
X151830000Y-67660000D03*
X149290000Y-67660000D03*
D12*
X187170000Y-93790000D03*
X187170000Y-82450000D03*
X187270000Y-88340000D03*
M02*
