G04 #@! TF.FileFunction,Copper,L1,Top,Signal*
%FSLAX46Y46*%
G04 Gerber Fmt 4.6, Leading zero omitted, Abs format (unit mm)*
G04 Created by KiCad (PCBNEW 4.0.6) date Saturday, April 28, 2018 'AMt' 01:11:43 AM*
%MOMM*%
%LPD*%
G01*
G04 APERTURE LIST*
%ADD10C,0.100000*%
%ADD11R,0.750000X4.040000*%
%ADD12R,1.700000X1.700000*%
%ADD13O,1.700000X1.700000*%
%ADD14C,0.600000*%
%ADD15C,0.250000*%
G04 APERTURE END LIST*
D10*
D11*
X122488000Y-83000000D03*
X123488000Y-83000000D03*
X124488000Y-83000000D03*
X125488000Y-83000000D03*
X126488000Y-83000000D03*
X127488000Y-83000000D03*
X128488000Y-83000000D03*
X129488000Y-83000000D03*
X130488000Y-83000000D03*
X131488000Y-83000000D03*
X132488000Y-83000000D03*
X133488000Y-83000000D03*
X134488000Y-83000000D03*
X135488000Y-83000000D03*
X136488000Y-83000000D03*
X137488000Y-83000000D03*
X138488000Y-83000000D03*
X139488000Y-83000000D03*
X140488000Y-83000000D03*
X141488000Y-83000000D03*
X142488000Y-83000000D03*
X143488000Y-83000000D03*
X144488000Y-83000000D03*
X145488000Y-83000000D03*
X146488000Y-83000000D03*
X147488000Y-83000000D03*
X148488000Y-83000000D03*
X149488000Y-83000000D03*
X150488000Y-83000000D03*
X151488000Y-83000000D03*
X152488000Y-83000000D03*
X153488000Y-83000000D03*
X154488000Y-83000000D03*
X155488000Y-83000000D03*
X156488000Y-83000000D03*
X157488000Y-83000000D03*
X158488000Y-83000000D03*
X159488000Y-83000000D03*
X160488000Y-83000000D03*
X161488000Y-83000000D03*
X162488000Y-83000000D03*
X163488000Y-83000000D03*
X164488000Y-83000000D03*
X165488000Y-83000000D03*
X166488000Y-83000000D03*
X167488000Y-83000000D03*
X168488000Y-83000000D03*
X169488000Y-83000000D03*
X170488000Y-83000000D03*
X122000000Y-89000000D03*
X123000000Y-89000000D03*
X124000000Y-89000000D03*
X125000000Y-89000000D03*
X126000000Y-89000000D03*
X127000000Y-89000000D03*
X128000000Y-89000000D03*
X129000000Y-89000000D03*
X130000000Y-89000000D03*
X131000000Y-89000000D03*
X132000000Y-89000000D03*
X133000000Y-89000000D03*
X134000000Y-89000000D03*
X135000000Y-89000000D03*
X136000000Y-89000000D03*
X137000000Y-89000000D03*
X138000000Y-89000000D03*
X139000000Y-89000000D03*
X140000000Y-89000000D03*
X141000000Y-89000000D03*
X142000000Y-89000000D03*
X143000000Y-89000000D03*
X144000000Y-89000000D03*
X145000000Y-89000000D03*
X146000000Y-89000000D03*
X147000000Y-89000000D03*
X148000000Y-89000000D03*
X149000000Y-89000000D03*
X150000000Y-89000000D03*
X151000000Y-89000000D03*
X152000000Y-89000000D03*
X153000000Y-89000000D03*
X154000000Y-89000000D03*
X155000000Y-89000000D03*
X156000000Y-89000000D03*
X157000000Y-89000000D03*
X158000000Y-89000000D03*
X159000000Y-89000000D03*
X160000000Y-89000000D03*
X161000000Y-89000000D03*
X162000000Y-89000000D03*
X163000000Y-89000000D03*
X164000000Y-89000000D03*
X165000000Y-89000000D03*
X166000000Y-89000000D03*
X167000000Y-89000000D03*
X168000000Y-89000000D03*
X169000000Y-89000000D03*
X170000000Y-89000000D03*
X171000000Y-89000000D03*
D12*
X102920000Y-55600000D03*
D13*
X105460000Y-55600000D03*
X108000000Y-55600000D03*
X110540000Y-55600000D03*
X113080000Y-55600000D03*
X115620000Y-55600000D03*
X118160000Y-55600000D03*
X120700000Y-55600000D03*
X123240000Y-55600000D03*
X125780000Y-55600000D03*
X128320000Y-55600000D03*
X130860000Y-55600000D03*
X133400000Y-55600000D03*
X135940000Y-55600000D03*
X138480000Y-55600000D03*
X141020000Y-55600000D03*
D12*
X149310000Y-55600000D03*
D13*
X151850000Y-55600000D03*
X154390000Y-55600000D03*
X156930000Y-55600000D03*
X159470000Y-55600000D03*
X162010000Y-55600000D03*
X164550000Y-55600000D03*
X167090000Y-55600000D03*
X169630000Y-55600000D03*
X172170000Y-55600000D03*
X174710000Y-55600000D03*
X177250000Y-55600000D03*
X179790000Y-55600000D03*
X182330000Y-55600000D03*
X184870000Y-55600000D03*
X187410000Y-55600000D03*
D12*
X187410000Y-61310000D03*
D13*
X184870000Y-61310000D03*
X182330000Y-61310000D03*
X179790000Y-61310000D03*
X177250000Y-61310000D03*
X174710000Y-61310000D03*
X172170000Y-61310000D03*
X169630000Y-61310000D03*
X167090000Y-61310000D03*
X164550000Y-61310000D03*
X162010000Y-61310000D03*
X159470000Y-61310000D03*
X156930000Y-61310000D03*
X154390000Y-61310000D03*
X151850000Y-61310000D03*
X149310000Y-61310000D03*
D12*
X102920000Y-61310280D03*
D13*
X105460000Y-61310280D03*
X108000000Y-61310280D03*
X110540000Y-61310280D03*
X113080000Y-61310280D03*
X115620000Y-61310280D03*
X118160000Y-61310280D03*
X120700000Y-61310280D03*
X123240000Y-61310280D03*
X125780000Y-61310280D03*
X128320000Y-61310280D03*
X130860000Y-61310280D03*
X133400000Y-61310280D03*
X135940000Y-61310280D03*
X138480000Y-61310280D03*
X141020000Y-61310280D03*
D12*
X141010000Y-67657460D03*
D13*
X138470000Y-67657460D03*
X135930000Y-67657460D03*
X133390000Y-67657460D03*
X130850000Y-67657460D03*
X128310000Y-67657460D03*
X125770000Y-67657460D03*
X123230000Y-67657460D03*
X120690000Y-67657460D03*
X118150000Y-67657460D03*
X115610000Y-67657460D03*
X113070000Y-67657460D03*
X110530000Y-67657460D03*
X107990000Y-67657460D03*
X105450000Y-67657460D03*
X102910000Y-67657460D03*
D12*
X187390000Y-67660000D03*
D13*
X184850000Y-67660000D03*
X182310000Y-67660000D03*
X179770000Y-67660000D03*
X177230000Y-67660000D03*
X174690000Y-67660000D03*
X172150000Y-67660000D03*
X169610000Y-67660000D03*
X167070000Y-67660000D03*
X164530000Y-67660000D03*
X161990000Y-67660000D03*
X159450000Y-67660000D03*
X156910000Y-67660000D03*
X154370000Y-67660000D03*
X151830000Y-67660000D03*
X149290000Y-67660000D03*
D12*
X187170000Y-93790000D03*
X187170000Y-82450000D03*
X187270000Y-88340000D03*
D14*
X146800000Y-80200000D03*
X147550000Y-82970000D03*
X148488000Y-83000000D03*
X149475000Y-82000000D03*
X150475000Y-84125000D03*
X151467867Y-83437709D03*
X152488000Y-83000000D03*
X153404979Y-83020000D03*
X170488000Y-83000000D03*
X192190000Y-72900000D03*
X100890000Y-61460000D03*
X102024801Y-58424237D03*
X100380000Y-58690000D03*
X99540000Y-62060000D03*
X98800000Y-60900000D03*
X97960000Y-61540000D03*
X97334990Y-65005144D03*
X96884979Y-70090636D03*
X96959473Y-72806568D03*
X96159620Y-72790630D03*
X96214924Y-76800632D03*
X96279494Y-77605595D03*
X98751945Y-80078047D03*
X100495724Y-81821826D03*
X135000000Y-89000000D03*
X148460000Y-85570000D03*
X139834999Y-74205001D03*
X137000000Y-89000000D03*
X138000000Y-89000000D03*
X138875002Y-88830000D03*
X140000000Y-89000000D03*
X141000000Y-89000000D03*
X142000000Y-90600000D03*
X143000000Y-90000000D03*
X144000000Y-89000000D03*
X145000000Y-89000000D03*
X145875002Y-88959541D03*
X147060000Y-88980000D03*
X148090000Y-89060000D03*
X149000000Y-89000000D03*
X150000000Y-89000000D03*
X151000000Y-89000000D03*
X152000000Y-89000000D03*
X152940000Y-88900000D03*
X154000000Y-89000000D03*
X154930006Y-88930006D03*
X156000000Y-89000000D03*
X157000000Y-89000000D03*
X158000000Y-89000000D03*
X159000000Y-89000000D03*
X160000000Y-89000000D03*
X160910000Y-89340000D03*
X162000000Y-89000000D03*
X163000000Y-89000000D03*
X164000000Y-89000000D03*
X165000000Y-89000000D03*
X166000000Y-89000000D03*
X167000000Y-89000000D03*
X168000000Y-89000000D03*
D15*
X122488000Y-83000000D02*
X121593538Y-83000000D01*
X102920000Y-56700000D02*
X102920000Y-55600000D01*
X121593538Y-83000000D02*
X106814999Y-68221461D01*
X106814999Y-68221461D02*
X106814999Y-60594999D01*
X106814999Y-60594999D02*
X102920000Y-56700000D01*
X109175001Y-63758607D02*
X107510009Y-65423599D01*
X121142999Y-80654999D02*
X123412999Y-80654999D01*
X123412999Y-80654999D02*
X123488000Y-80730000D01*
X107510009Y-65423599D02*
X107510009Y-65438465D01*
X105460000Y-55600000D02*
X109175001Y-59315001D01*
X109175001Y-59315001D02*
X109175001Y-63758607D01*
X107510009Y-65438465D02*
X109354999Y-67283457D01*
X109354999Y-67283457D02*
X109354999Y-68866999D01*
X109354999Y-68866999D02*
X121142999Y-80654999D01*
X123488000Y-80730000D02*
X123488000Y-83000000D01*
X111715001Y-59315001D02*
X111715001Y-62023459D01*
X124488000Y-81019998D02*
X124488000Y-83000000D01*
X109175001Y-64563459D02*
X111894999Y-67283457D01*
X108000000Y-55600000D02*
X111715001Y-59315001D01*
X111715001Y-62023459D02*
X109175001Y-64563459D01*
X111894999Y-67283457D02*
X111894999Y-68426997D01*
X111894999Y-68426997D02*
X124488000Y-81019998D01*
X110540000Y-55600000D02*
X114255001Y-59315001D01*
X114245001Y-69487001D02*
X125488000Y-80730000D01*
X114255001Y-59315001D02*
X114255001Y-62403455D01*
X114255001Y-62403455D02*
X111904999Y-64753457D01*
X111904999Y-64753457D02*
X114245001Y-67093459D01*
X114245001Y-67093459D02*
X114245001Y-69487001D01*
X125488000Y-80730000D02*
X125488000Y-83000000D01*
X116795001Y-62023459D02*
X114255001Y-64563459D01*
X116795001Y-59315001D02*
X116795001Y-62023459D01*
X116785001Y-67093459D02*
X116785001Y-71027001D01*
X116785001Y-71027001D02*
X126488000Y-80730000D01*
X126488000Y-80730000D02*
X126488000Y-83000000D01*
X113080000Y-55600000D02*
X116795001Y-59315001D01*
X114255001Y-64563459D02*
X116785001Y-67093459D01*
X127488000Y-80730000D02*
X127488000Y-83000000D01*
X115620000Y-55600000D02*
X119335001Y-59315001D01*
X118714001Y-68832461D02*
X118714001Y-71956001D01*
X119325001Y-67093459D02*
X119325001Y-68221461D01*
X116795001Y-64563459D02*
X119325001Y-67093459D01*
X119325001Y-68221461D02*
X118714001Y-68832461D01*
X119335001Y-59315001D02*
X119335001Y-62023459D01*
X118714001Y-71956001D02*
X127488000Y-80730000D01*
X119335001Y-62023459D02*
X116795001Y-64563459D01*
X121875001Y-62023459D02*
X119335001Y-64563459D01*
X119335001Y-64563459D02*
X121865001Y-67093459D01*
X121875001Y-59315001D02*
X121875001Y-62023459D01*
X121865001Y-67093459D02*
X121865001Y-69047001D01*
X121865001Y-69047001D02*
X119335001Y-71577001D01*
X128488000Y-80730000D02*
X128488000Y-83000000D01*
X118160000Y-55600000D02*
X121875001Y-59315001D01*
X119335001Y-71577001D02*
X128488000Y-80730000D01*
X124415001Y-62383455D02*
X122054999Y-64743457D01*
X122054999Y-73296999D02*
X129488000Y-80730000D01*
X122054999Y-64743457D02*
X124405001Y-67093459D01*
X124405001Y-68221461D02*
X122054999Y-70571463D01*
X129488000Y-80730000D02*
X129488000Y-83000000D01*
X124415001Y-59315001D02*
X124415001Y-62383455D01*
X120700000Y-55600000D02*
X124415001Y-59315001D01*
X124405001Y-67093459D02*
X124405001Y-68221461D01*
X122054999Y-70571463D02*
X122054999Y-73296999D01*
X126945001Y-67093459D02*
X126945001Y-68221461D01*
X126955001Y-59315001D02*
X126955001Y-62023459D01*
X126945001Y-68221461D02*
X124405001Y-70761461D01*
X126955001Y-62023459D02*
X124415001Y-64563459D01*
X124415001Y-64563459D02*
X126945001Y-67093459D01*
X124405001Y-74647001D02*
X130488000Y-80730000D01*
X123240000Y-55600000D02*
X126955001Y-59315001D01*
X124405001Y-70761461D02*
X124405001Y-74647001D01*
X130488000Y-80730000D02*
X130488000Y-83000000D01*
X129485001Y-67093459D02*
X129485001Y-68221461D01*
X131488000Y-80730000D02*
X131488000Y-83000000D01*
X129485001Y-68221461D02*
X124855012Y-72851450D01*
X129495001Y-62023459D02*
X126955001Y-64563459D01*
X124855012Y-74097012D02*
X131488000Y-80730000D01*
X124855012Y-72851450D02*
X124855012Y-74097012D01*
X126955001Y-64563459D02*
X129485001Y-67093459D01*
X125780000Y-55600000D02*
X129495001Y-59315001D01*
X129495001Y-59315001D02*
X129495001Y-62023459D01*
X128320000Y-55600000D02*
X132035001Y-59315001D01*
X132025001Y-67093459D02*
X132025001Y-68221461D01*
X132035001Y-59315001D02*
X132035001Y-62023459D01*
X132035001Y-62023459D02*
X129495001Y-64563459D01*
X132025001Y-68221461D02*
X127134999Y-73111463D01*
X129495001Y-64563459D02*
X132025001Y-67093459D01*
X127134999Y-75376999D02*
X132488000Y-80730000D01*
X127134999Y-73111463D02*
X127134999Y-75376999D01*
X132488000Y-80730000D02*
X132488000Y-83000000D01*
X134575001Y-62023459D02*
X132035001Y-64563459D01*
X133488000Y-81019998D02*
X133488000Y-83000000D01*
X134565001Y-68221461D02*
X129674999Y-73111463D01*
X130860000Y-55600000D02*
X134575001Y-59315001D01*
X134575001Y-59315001D02*
X134575001Y-62023459D01*
X132035001Y-64563459D02*
X134565001Y-67093459D01*
X129674999Y-77206997D02*
X133488000Y-81019998D01*
X134565001Y-67093459D02*
X134565001Y-68221461D01*
X129674999Y-73111463D02*
X129674999Y-77206997D01*
X134488000Y-80730000D02*
X134488000Y-83000000D01*
X135750000Y-57950000D02*
X139455890Y-57950000D01*
X133400000Y-55600000D02*
X135750000Y-57950000D01*
X142229879Y-60723989D02*
X142229879Y-72988121D01*
X139455890Y-57950000D02*
X142229879Y-60723989D01*
X142229879Y-72988121D02*
X134488000Y-80730000D01*
X142679890Y-73250111D02*
X135488000Y-80442001D01*
X142679890Y-60537589D02*
X142679890Y-73250111D01*
X137839989Y-57499989D02*
X139642290Y-57499989D01*
X135940000Y-55600000D02*
X137839989Y-57499989D01*
X135488000Y-80730000D02*
X135488000Y-83000000D01*
X135488000Y-80442001D02*
X135488000Y-80730000D01*
X139642290Y-57499989D02*
X142679890Y-60537589D01*
X143129901Y-60249901D02*
X143129901Y-74088099D01*
X138480000Y-55600000D02*
X143129901Y-60249901D01*
X143129901Y-74088099D02*
X136488000Y-80730000D01*
X136488000Y-80730000D02*
X136488000Y-83000000D01*
X137488000Y-80730000D02*
X137488000Y-83000000D01*
X143579912Y-74638088D02*
X137488000Y-80730000D01*
X141020000Y-55600000D02*
X143579912Y-58159912D01*
X143579912Y-58159912D02*
X143579912Y-74638088D01*
X138488000Y-80730000D02*
X138488000Y-83000000D01*
X144029923Y-75188077D02*
X138488000Y-80730000D01*
X144029923Y-59201611D02*
X144029923Y-75188077D01*
X147631534Y-55600000D02*
X144029923Y-59201611D01*
X149310000Y-55600000D02*
X147631534Y-55600000D01*
X139488000Y-80730000D02*
X139488000Y-83000000D01*
X144479934Y-59388011D02*
X144479934Y-75738066D01*
X146688009Y-57179936D02*
X144479934Y-59388011D01*
X144479934Y-75738066D02*
X139488000Y-80730000D01*
X151850000Y-55600000D02*
X150270064Y-57179936D01*
X150270064Y-57179936D02*
X146688009Y-57179936D01*
X140488000Y-80730000D02*
X140488000Y-83000000D01*
X154390000Y-55600000D02*
X152360053Y-57629947D01*
X144929945Y-76288055D02*
X140488000Y-80730000D01*
X147467996Y-57629947D02*
X144929945Y-60167998D01*
X152360053Y-57629947D02*
X147467996Y-57629947D01*
X144929945Y-60167998D02*
X144929945Y-76288055D01*
X141488000Y-80730000D02*
X141488000Y-83000000D01*
X145379956Y-76838044D02*
X141488000Y-80730000D01*
X156930000Y-55600000D02*
X154450042Y-58079958D01*
X147654396Y-58079958D02*
X145379956Y-60354398D01*
X145379956Y-60354398D02*
X145379956Y-76838044D01*
X154450042Y-58079958D02*
X147654396Y-58079958D01*
X145829967Y-60540798D02*
X145829967Y-77388033D01*
X147840796Y-58529969D02*
X145829967Y-60540798D01*
X156540031Y-58529969D02*
X147840796Y-58529969D01*
X159470000Y-55600000D02*
X156540031Y-58529969D01*
X142488000Y-80730000D02*
X142488000Y-83000000D01*
X145829967Y-77388033D02*
X142488000Y-80730000D01*
X146279978Y-77938022D02*
X143488000Y-80730000D01*
X146279978Y-60727198D02*
X146279978Y-77938022D01*
X148027196Y-58979980D02*
X146279978Y-60727198D01*
X143488000Y-80730000D02*
X143488000Y-83000000D01*
X162010000Y-55600000D02*
X158630020Y-58979980D01*
X158630020Y-58979980D02*
X148027196Y-58979980D01*
X144488000Y-80730000D02*
X144488000Y-83000000D01*
X146869989Y-60773598D02*
X146869989Y-78348011D01*
X146869989Y-78348011D02*
X144488000Y-80730000D01*
X164550000Y-55600000D02*
X160720009Y-59429991D01*
X148213596Y-59429991D02*
X146869989Y-60773598D01*
X160720009Y-59429991D02*
X148213596Y-59429991D01*
X145488000Y-80730000D02*
X145488000Y-83000000D01*
X145488000Y-80586998D02*
X145488000Y-80730000D01*
X147320000Y-78754998D02*
X145488000Y-80586998D01*
X147320000Y-60959998D02*
X147320000Y-78754998D01*
X148144999Y-60134999D02*
X147320000Y-60959998D01*
X162555001Y-60134999D02*
X148144999Y-60134999D01*
X167090000Y-55600000D02*
X162555001Y-60134999D01*
X146800000Y-80200000D02*
X146488000Y-80512000D01*
X146488000Y-80512000D02*
X146488000Y-83000000D01*
X149310000Y-61310000D02*
X154380075Y-66380075D01*
X154488000Y-80730000D02*
X154488000Y-83000000D01*
X163589533Y-74100000D02*
X161118000Y-74100000D01*
X163354999Y-70764001D02*
X165894999Y-70764001D01*
X165894999Y-71794534D02*
X163589533Y-74100000D01*
X160099075Y-66380075D02*
X160814999Y-67095999D01*
X165894999Y-70764001D02*
X165894999Y-71794534D01*
X160814999Y-67095999D02*
X160814999Y-68224001D01*
X154380075Y-66380075D02*
X160099075Y-66380075D01*
X160814999Y-68224001D02*
X163354999Y-70764001D01*
X161118000Y-74100000D02*
X154488000Y-80730000D01*
X155563001Y-80654999D02*
X155488000Y-80730000D01*
X163354999Y-68224001D02*
X164416010Y-69285012D01*
X159513600Y-76809989D02*
X155668590Y-80654999D01*
X164416010Y-69285012D02*
X166505999Y-69285012D01*
X166505999Y-69285012D02*
X166505999Y-71819945D01*
X155488000Y-80730000D02*
X155488000Y-83000000D01*
X155668590Y-80654999D02*
X155563001Y-80654999D01*
X161515955Y-76809989D02*
X159513600Y-76809989D01*
X166505999Y-71819945D02*
X161515955Y-76809989D01*
X163354999Y-67095999D02*
X163354999Y-68224001D01*
X162189064Y-65930064D02*
X163354999Y-67095999D01*
X156470064Y-65930064D02*
X162189064Y-65930064D01*
X151850000Y-61310000D02*
X156470064Y-65930064D01*
X165894999Y-67095999D02*
X165894999Y-68224001D01*
X156488000Y-80730000D02*
X156488000Y-83000000D01*
X161702355Y-77260000D02*
X159958000Y-77260000D01*
X166742644Y-68835001D02*
X168434999Y-70527356D01*
X158370000Y-65290000D02*
X164089000Y-65290000D01*
X164089000Y-65290000D02*
X165894999Y-67095999D01*
X159958000Y-77260000D02*
X156488000Y-80730000D01*
X168434999Y-70527356D02*
X161702355Y-77260000D01*
X166505999Y-68835001D02*
X166742644Y-68835001D01*
X154390000Y-61310000D02*
X158370000Y-65290000D01*
X165894999Y-68224001D02*
X166505999Y-68835001D01*
X168434999Y-68224001D02*
X169045999Y-68835001D01*
X157488000Y-80730000D02*
X157488000Y-83000000D01*
X161548766Y-78050000D02*
X160168000Y-78050000D01*
X169045999Y-68835001D02*
X169045999Y-70552767D01*
X169045999Y-70552767D02*
X161548766Y-78050000D01*
X168434999Y-67095999D02*
X168434999Y-68224001D01*
X166149053Y-64810053D02*
X168434999Y-67095999D01*
X160430053Y-64810053D02*
X166149053Y-64810053D01*
X156930000Y-61310000D02*
X160430053Y-64810053D01*
X160168000Y-78050000D02*
X157488000Y-80730000D01*
X158488000Y-80730000D02*
X158488000Y-83000000D01*
X160188000Y-79030000D02*
X158488000Y-80730000D01*
X170974999Y-69260178D02*
X161205177Y-79030000D01*
X159470000Y-61310000D02*
X162520042Y-64360042D01*
X168239042Y-64360042D02*
X170974999Y-67095999D01*
X162520042Y-64360042D02*
X168239042Y-64360042D01*
X161205177Y-79030000D02*
X160188000Y-79030000D01*
X170974999Y-67095999D02*
X170974999Y-69260178D01*
X171059011Y-70679989D02*
X170191598Y-70679989D01*
X173514999Y-68224001D02*
X171059011Y-70679989D01*
X173514999Y-67095999D02*
X173514999Y-68224001D01*
X169118718Y-63910031D02*
X171693686Y-66484999D01*
X159488000Y-80730000D02*
X159488000Y-83000000D01*
X170191598Y-70679989D02*
X160216588Y-80654999D01*
X160216588Y-80654999D02*
X159563001Y-80654999D01*
X162010000Y-61310000D02*
X164610031Y-63910031D01*
X164610031Y-63910031D02*
X169118718Y-63910031D01*
X171693686Y-66484999D02*
X172903999Y-66484999D01*
X159563001Y-80654999D02*
X159488000Y-80730000D01*
X172903999Y-66484999D02*
X173514999Y-67095999D01*
X170377998Y-71130000D02*
X160488000Y-81019998D01*
X166700020Y-63460020D02*
X169305118Y-63460020D01*
X160488000Y-81019998D02*
X160488000Y-83000000D01*
X172717179Y-71130000D02*
X170377998Y-71130000D01*
X164550000Y-61310000D02*
X166700020Y-63460020D01*
X175067200Y-68779978D02*
X172717179Y-71130000D01*
X175347201Y-68779978D02*
X175067200Y-68779978D01*
X176054999Y-68072180D02*
X175347201Y-68779978D01*
X174669022Y-65710022D02*
X176054999Y-67095999D01*
X171555119Y-65710022D02*
X174669022Y-65710022D01*
X176054999Y-67095999D02*
X176054999Y-68072180D01*
X169305118Y-63460020D02*
X171555119Y-65710022D01*
X176759012Y-65260012D02*
X178594999Y-67095999D01*
X178594999Y-68066535D02*
X169921589Y-76739945D01*
X178594999Y-67095999D02*
X178594999Y-68066535D01*
X172943601Y-65260012D02*
X176759012Y-65260012D01*
X165368066Y-76849934D02*
X161488000Y-80730000D01*
X161488000Y-80730000D02*
X161488000Y-83000000D01*
X167939999Y-62159999D02*
X168641507Y-62159999D01*
X169921589Y-76739945D02*
X169218000Y-76739945D01*
X167090000Y-61310000D02*
X167939999Y-62159999D01*
X171741521Y-65260011D02*
X172943601Y-65260012D01*
X168641507Y-62159999D02*
X171741521Y-65260011D01*
X169218000Y-76739945D02*
X169108011Y-76849934D01*
X169108011Y-76849934D02*
X165368066Y-76849934D01*
X181134999Y-68352947D02*
X172297990Y-77189956D01*
X177738177Y-64810001D02*
X179413175Y-66484999D01*
X180523999Y-66484999D02*
X181134999Y-67095999D01*
X173130001Y-64810001D02*
X177738177Y-64810001D01*
X172297990Y-77189956D02*
X169404400Y-77189956D01*
X169404400Y-77189956D02*
X169294411Y-77299945D01*
X169294411Y-77299945D02*
X165918055Y-77299945D01*
X162488000Y-80730000D02*
X162488000Y-83000000D01*
X179413175Y-66484999D02*
X180523999Y-66484999D01*
X169630000Y-61310000D02*
X173130001Y-64810001D01*
X165918055Y-77299945D02*
X162488000Y-80730000D01*
X181134999Y-67095999D02*
X181134999Y-68352947D01*
X173884389Y-77779967D02*
X166438033Y-77779967D01*
X183674999Y-67095999D02*
X183674999Y-67989357D01*
X175210011Y-64350011D02*
X177914598Y-64350011D01*
X172170000Y-61310000D02*
X175210011Y-64350011D01*
X182599035Y-66020035D02*
X183674999Y-67095999D01*
X183674999Y-67989357D02*
X173884389Y-77779967D01*
X166438033Y-77779967D02*
X163488000Y-80730000D01*
X163488000Y-80730000D02*
X163488000Y-83000000D01*
X179584622Y-66020035D02*
X182599035Y-66020035D01*
X177914598Y-64350011D02*
X179584622Y-66020035D01*
X179771022Y-65570024D02*
X184014380Y-65570024D01*
X186065044Y-66400044D02*
X186214999Y-66549999D01*
X175559999Y-62159999D02*
X176360997Y-62159999D01*
X174710000Y-61310000D02*
X175559999Y-62159999D01*
X175980789Y-78229978D02*
X166988022Y-78229978D01*
X166988022Y-78229978D02*
X164488000Y-80730000D01*
X176360997Y-62159999D02*
X179771022Y-65570024D01*
X186214999Y-67995768D02*
X175980789Y-78229978D01*
X184844400Y-66400044D02*
X186065044Y-66400044D01*
X164488000Y-80730000D02*
X164488000Y-83000000D01*
X186214999Y-66549999D02*
X186214999Y-67995768D01*
X184014380Y-65570024D02*
X184844400Y-66400044D01*
X184200781Y-65120013D02*
X185030800Y-65950033D01*
X187434389Y-65950033D02*
X187534400Y-66050044D01*
X188809991Y-66896401D02*
X188809991Y-69073599D01*
X188809991Y-69073599D02*
X178153601Y-79729989D01*
X187534400Y-66050044D02*
X187963634Y-66050044D01*
X177250000Y-61310000D02*
X181060013Y-65120013D01*
X181060013Y-65120013D02*
X184200781Y-65120013D01*
X185030800Y-65950033D02*
X187434389Y-65950033D01*
X187963634Y-66050044D02*
X188809991Y-66896401D01*
X178153601Y-79729989D02*
X166373600Y-79729989D01*
X166373600Y-79729989D02*
X165488000Y-80615589D01*
X165488000Y-80730000D02*
X165488000Y-83000000D01*
X165488000Y-80615589D02*
X165488000Y-80730000D01*
X187620789Y-65500022D02*
X187720800Y-65600033D01*
X185217200Y-65500022D02*
X187620789Y-65500022D01*
X189715008Y-68804992D02*
X177865001Y-80654999D01*
X187720800Y-65600033D02*
X188150033Y-65600033D01*
X179790000Y-61310000D02*
X183150002Y-64670002D01*
X166563001Y-80654999D02*
X166488000Y-80730000D01*
X183150002Y-64670002D02*
X184387181Y-64670002D01*
X184387181Y-64670002D02*
X185217200Y-65500022D01*
X188150033Y-65600033D02*
X189715008Y-67165008D01*
X189715008Y-67165008D02*
X189715008Y-68804992D01*
X177865001Y-80654999D02*
X166563001Y-80654999D01*
X166488000Y-80730000D02*
X166488000Y-83000000D01*
X167488000Y-85270000D02*
X167488000Y-83000000D01*
X176307032Y-86245021D02*
X168463021Y-86245021D01*
X191965060Y-70586993D02*
X176307032Y-86245021D01*
X188706402Y-59684990D02*
X191965061Y-62943649D01*
X182330000Y-61310000D02*
X183955010Y-59684990D01*
X183955010Y-59684990D02*
X188706402Y-59684990D01*
X168463021Y-86245021D02*
X167488000Y-85270000D01*
X191965061Y-62943649D02*
X191965060Y-70586993D01*
X186045001Y-60134999D02*
X188520001Y-60134999D01*
X176120632Y-85795011D02*
X169013011Y-85795011D01*
X184870000Y-61310000D02*
X186045001Y-60134999D01*
X188520001Y-60134999D02*
X191515051Y-63130049D01*
X191515051Y-63130049D02*
X191515051Y-70400592D01*
X168488000Y-85270000D02*
X168488000Y-83000000D01*
X169013011Y-85795011D02*
X168488000Y-85270000D01*
X191515051Y-70400592D02*
X176120632Y-85795011D01*
X191065041Y-66065041D02*
X191065041Y-70214192D01*
X191065041Y-70214192D02*
X175934232Y-85345001D01*
X187410000Y-62410000D02*
X191065041Y-66065041D01*
X175934232Y-85345001D02*
X169563001Y-85345001D01*
X169488000Y-85270000D02*
X169488000Y-83000000D01*
X187410000Y-61310000D02*
X187410000Y-62410000D01*
X169563001Y-85345001D02*
X169488000Y-85270000D01*
X102920000Y-61310280D02*
X102920000Y-60210280D01*
X102920000Y-60210280D02*
X102820000Y-60110280D01*
X100740000Y-53550000D02*
X191360000Y-53550000D01*
X191360000Y-53550000D02*
X192080000Y-54270000D01*
X102820000Y-60110280D02*
X102820000Y-57940000D01*
X192080000Y-72790000D02*
X192190000Y-72900000D01*
X102820000Y-57940000D02*
X102790000Y-57940000D01*
X102790000Y-57940000D02*
X101740000Y-56890000D01*
X101740000Y-56890000D02*
X101620000Y-56890000D01*
X101620000Y-56890000D02*
X100740000Y-56010000D01*
X100740000Y-56010000D02*
X100740000Y-53550000D01*
X192415070Y-62757250D02*
X192415069Y-70773394D01*
X192080000Y-54270000D02*
X192080000Y-62422178D01*
X192080000Y-62422178D02*
X192415070Y-62757250D01*
X192415069Y-70773394D02*
X192080000Y-71108463D01*
X192080000Y-71108463D02*
X192080000Y-72790000D01*
X104610001Y-62160279D02*
X105460000Y-61310280D01*
X104274999Y-62495281D02*
X104610001Y-62160279D01*
X104274999Y-69004999D02*
X104274999Y-62495281D01*
X122000000Y-86730000D02*
X104274999Y-69004999D01*
X122000000Y-89000000D02*
X122000000Y-86730000D01*
X101724802Y-58724236D02*
X102024801Y-58424237D01*
X101724802Y-73001460D02*
X101724802Y-58724236D01*
X122924999Y-91345001D02*
X120068343Y-91345001D01*
X123000000Y-89000000D02*
X123000000Y-91270000D01*
X123000000Y-91270000D02*
X122924999Y-91345001D01*
X120068343Y-91345001D02*
X101724802Y-73001460D01*
X100080001Y-58989999D02*
X100080001Y-61575003D01*
X100380000Y-58690000D02*
X100080001Y-58989999D01*
X119916801Y-91829870D02*
X123440130Y-91829870D01*
X123440130Y-91829870D02*
X124000000Y-91270000D01*
X100380000Y-72293069D02*
X119916801Y-91829870D01*
X100380000Y-61875002D02*
X100380000Y-72293069D01*
X100080001Y-61575003D02*
X100380000Y-61875002D01*
X124000000Y-91270000D02*
X124000000Y-89000000D01*
X119730401Y-92279881D02*
X123990119Y-92279881D01*
X125000000Y-91270000D02*
X125000000Y-89000000D01*
X123990119Y-92279881D02*
X125000000Y-91270000D01*
X99540000Y-72089480D02*
X119730401Y-92279881D01*
X99540000Y-62060000D02*
X99540000Y-72089480D01*
X126000000Y-91270000D02*
X126000000Y-89000000D01*
X124540108Y-92729892D02*
X126000000Y-91270000D01*
X119544001Y-92729892D02*
X124540108Y-92729892D01*
X99089989Y-72275880D02*
X119544001Y-92729892D01*
X98800000Y-60900000D02*
X98800000Y-71546411D01*
X98800000Y-71546411D02*
X99089989Y-71836400D01*
X99089989Y-71836400D02*
X99089989Y-72275880D01*
X127000000Y-91270000D02*
X127000000Y-89000000D01*
X119357601Y-93179903D02*
X125090097Y-93179903D01*
X98639978Y-72462280D02*
X119357601Y-93179903D01*
X125090097Y-93179903D02*
X127000000Y-91270000D01*
X97960000Y-71342822D02*
X98639978Y-72022800D01*
X97960000Y-61540000D02*
X97960000Y-71342822D01*
X98639978Y-72022800D02*
X98639978Y-72462280D01*
X98189967Y-72419199D02*
X97509989Y-71739221D01*
X98189967Y-72648680D02*
X98189967Y-72419199D01*
X128000000Y-89000000D02*
X128000000Y-91270000D01*
X119171201Y-93629914D02*
X98189967Y-72648680D01*
X125640086Y-93629914D02*
X119171201Y-93629914D01*
X97509989Y-65604407D02*
X97334990Y-65429408D01*
X128000000Y-91270000D02*
X125640086Y-93629914D01*
X97509989Y-71739221D02*
X97509989Y-65604407D01*
X97334990Y-65429408D02*
X97334990Y-65005144D01*
X129000000Y-91270000D02*
X126190075Y-94079925D01*
X96884979Y-70514900D02*
X96884979Y-70090636D01*
X96884979Y-71750622D02*
X96884979Y-70514900D01*
X97739956Y-72605599D02*
X96884979Y-71750622D01*
X97739956Y-72835080D02*
X97739956Y-72605599D01*
X118984801Y-94079925D02*
X97739956Y-72835080D01*
X126190075Y-94079925D02*
X118984801Y-94079925D01*
X129000000Y-89000000D02*
X129000000Y-91270000D01*
X96959473Y-75124926D02*
X96959473Y-73230832D01*
X101231327Y-79396780D02*
X96959473Y-75124926D01*
X126740064Y-94529936D02*
X118798402Y-94529936D01*
X106954480Y-84809934D02*
X101541326Y-79396780D01*
X118798402Y-94529936D02*
X109078400Y-84809934D01*
X96959473Y-73230832D02*
X96959473Y-72806568D01*
X130000000Y-89000000D02*
X130000000Y-91270000D01*
X130000000Y-91270000D02*
X126740064Y-94529936D01*
X101541326Y-79396780D02*
X101231327Y-79396780D01*
X109078400Y-84809934D02*
X106954480Y-84809934D01*
X118612002Y-94979947D02*
X108892000Y-85259945D01*
X96159620Y-73214894D02*
X96159620Y-72790630D01*
X96159620Y-74961484D02*
X96159620Y-73214894D01*
X106768080Y-85259945D02*
X101354926Y-79846791D01*
X131000000Y-91270000D02*
X127290053Y-94979947D01*
X131000000Y-89000000D02*
X131000000Y-91270000D01*
X108892000Y-85259945D02*
X106768080Y-85259945D01*
X127290053Y-94979947D02*
X118612002Y-94979947D01*
X101044927Y-79846791D02*
X96159620Y-74961484D01*
X101354926Y-79846791D02*
X101044927Y-79846791D01*
X106581680Y-85709956D02*
X101168526Y-80296802D01*
X108705600Y-85709956D02*
X106581680Y-85709956D01*
X100858527Y-80296802D02*
X97362357Y-76800632D01*
X127840042Y-95429958D02*
X118425602Y-95429958D01*
X96639188Y-76800632D02*
X96214924Y-76800632D01*
X97362357Y-76800632D02*
X96639188Y-76800632D01*
X101168526Y-80296802D02*
X100858527Y-80296802D01*
X132000000Y-91270000D02*
X127840042Y-95429958D01*
X118425602Y-95429958D02*
X108705600Y-85709956D01*
X132000000Y-89000000D02*
X132000000Y-91270000D01*
X97530909Y-77605595D02*
X96703758Y-77605595D01*
X133000000Y-89000000D02*
X133000000Y-91270000D01*
X96703758Y-77605595D02*
X96279494Y-77605595D01*
X100672127Y-80746813D02*
X97530909Y-77605595D01*
X106395280Y-86159967D02*
X100982126Y-80746813D01*
X108519200Y-86159967D02*
X106395280Y-86159967D01*
X128390031Y-95879969D02*
X118239202Y-95879969D01*
X118239202Y-95879969D02*
X108519200Y-86159967D01*
X133000000Y-91270000D02*
X128390031Y-95879969D01*
X100982126Y-80746813D02*
X100672127Y-80746813D01*
X108332800Y-86609978D02*
X106208880Y-86609978D01*
X118052802Y-96329980D02*
X108332800Y-86609978D01*
X100795726Y-81196824D02*
X99870722Y-81196824D01*
X128940020Y-96329980D02*
X118052802Y-96329980D01*
X134000000Y-89000000D02*
X134000000Y-91270000D01*
X99870722Y-81196824D02*
X99051944Y-80378046D01*
X134000000Y-91270000D02*
X128940020Y-96329980D01*
X99051944Y-80378046D02*
X98751945Y-80078047D01*
X106208880Y-86609978D02*
X100795726Y-81196824D01*
X129490009Y-96779991D02*
X117866402Y-96779991D01*
X108146400Y-87059989D02*
X105733887Y-87059989D01*
X105733887Y-87059989D02*
X100795723Y-82121825D01*
X135000000Y-89000000D02*
X135000000Y-91270000D01*
X100795723Y-82121825D02*
X100495724Y-81821826D01*
X135000000Y-91270000D02*
X129490009Y-96779991D01*
X117866402Y-96779991D02*
X108146400Y-87059989D01*
X148460000Y-85570000D02*
X137160000Y-85570000D01*
X137160000Y-85570000D02*
X136000000Y-86730000D01*
X136000000Y-86730000D02*
X136000000Y-89000000D01*
X139834999Y-62495281D02*
X139834999Y-74205001D01*
X141020000Y-61310280D02*
X139834999Y-62495281D01*
X169000000Y-89000000D02*
X169000000Y-91270000D01*
X169000000Y-91270000D02*
X173150000Y-95420000D01*
X173150000Y-95420000D02*
X186640000Y-95420000D01*
X186640000Y-95420000D02*
X187170000Y-94890000D01*
X187170000Y-94890000D02*
X187170000Y-93790000D01*
X170000000Y-89000000D02*
X170000000Y-91270000D01*
X170000000Y-91270000D02*
X170075001Y-91345001D01*
X170075001Y-91345001D02*
X183164999Y-91345001D01*
X183164999Y-91345001D02*
X186170000Y-88340000D01*
X186170000Y-88340000D02*
X187270000Y-88340000D01*
X171000000Y-89000000D02*
X181720000Y-89000000D01*
X181720000Y-89000000D02*
X187170000Y-83550000D01*
X187170000Y-83550000D02*
X187170000Y-82450000D01*
M02*
