G04 #@! TF.FileFunction,Legend,Top*
%FSLAX46Y46*%
G04 Gerber Fmt 4.6, Leading zero omitted, Abs format (unit mm)*
G04 Created by KiCad (PCBNEW 4.0.6) date Saturday, April 28, 2018 'AMt' 01:11:43 AM*
%MOMM*%
%LPD*%
G01*
G04 APERTURE LIST*
%ADD10C,0.100000*%
%ADD11C,0.155000*%
%ADD12C,0.200000*%
%ADD13C,0.120000*%
G04 APERTURE END LIST*
D10*
D11*
X189533333Y-83052381D02*
X189723809Y-83052381D01*
X189819048Y-83004762D01*
X189866667Y-82957143D01*
X189961905Y-82814286D01*
X190009524Y-82623810D01*
X190009524Y-82242857D01*
X189961905Y-82147619D01*
X189914286Y-82100000D01*
X189819048Y-82052381D01*
X189628571Y-82052381D01*
X189533333Y-82100000D01*
X189485714Y-82147619D01*
X189438095Y-82242857D01*
X189438095Y-82480952D01*
X189485714Y-82576190D01*
X189533333Y-82623810D01*
X189628571Y-82671429D01*
X189819048Y-82671429D01*
X189914286Y-82623810D01*
X189961905Y-82576190D01*
X190009524Y-82480952D01*
X190485714Y-83052381D02*
X190676190Y-83052381D01*
X190771429Y-83004762D01*
X190819048Y-82957143D01*
X190914286Y-82814286D01*
X190961905Y-82623810D01*
X190961905Y-82242857D01*
X190914286Y-82147619D01*
X190866667Y-82100000D01*
X190771429Y-82052381D01*
X190580952Y-82052381D01*
X190485714Y-82100000D01*
X190438095Y-82147619D01*
X190390476Y-82242857D01*
X190390476Y-82480952D01*
X190438095Y-82576190D01*
X190485714Y-82623810D01*
X190580952Y-82671429D01*
X190771429Y-82671429D01*
X190866667Y-82623810D01*
X190914286Y-82576190D01*
X190961905Y-82480952D01*
X189533333Y-88852381D02*
X189723809Y-88852381D01*
X189819048Y-88804762D01*
X189866667Y-88757143D01*
X189961905Y-88614286D01*
X190009524Y-88423810D01*
X190009524Y-88042857D01*
X189961905Y-87947619D01*
X189914286Y-87900000D01*
X189819048Y-87852381D01*
X189628571Y-87852381D01*
X189533333Y-87900000D01*
X189485714Y-87947619D01*
X189438095Y-88042857D01*
X189438095Y-88280952D01*
X189485714Y-88376190D01*
X189533333Y-88423810D01*
X189628571Y-88471429D01*
X189819048Y-88471429D01*
X189914286Y-88423810D01*
X189961905Y-88376190D01*
X190009524Y-88280952D01*
X190580952Y-88280952D02*
X190485714Y-88233333D01*
X190438095Y-88185714D01*
X190390476Y-88090476D01*
X190390476Y-88042857D01*
X190438095Y-87947619D01*
X190485714Y-87900000D01*
X190580952Y-87852381D01*
X190771429Y-87852381D01*
X190866667Y-87900000D01*
X190914286Y-87947619D01*
X190961905Y-88042857D01*
X190961905Y-88090476D01*
X190914286Y-88185714D01*
X190866667Y-88233333D01*
X190771429Y-88280952D01*
X190580952Y-88280952D01*
X190485714Y-88328571D01*
X190438095Y-88376190D01*
X190390476Y-88471429D01*
X190390476Y-88661905D01*
X190438095Y-88757143D01*
X190485714Y-88804762D01*
X190580952Y-88852381D01*
X190771429Y-88852381D01*
X190866667Y-88804762D01*
X190914286Y-88757143D01*
X190961905Y-88661905D01*
X190961905Y-88471429D01*
X190914286Y-88376190D01*
X190866667Y-88328571D01*
X190771429Y-88280952D01*
X189533333Y-94452381D02*
X189723809Y-94452381D01*
X189819048Y-94404762D01*
X189866667Y-94357143D01*
X189961905Y-94214286D01*
X190009524Y-94023810D01*
X190009524Y-93642857D01*
X189961905Y-93547619D01*
X189914286Y-93500000D01*
X189819048Y-93452381D01*
X189628571Y-93452381D01*
X189533333Y-93500000D01*
X189485714Y-93547619D01*
X189438095Y-93642857D01*
X189438095Y-93880952D01*
X189485714Y-93976190D01*
X189533333Y-94023810D01*
X189628571Y-94071429D01*
X189819048Y-94071429D01*
X189914286Y-94023810D01*
X189961905Y-93976190D01*
X190009524Y-93880952D01*
X190342857Y-93452381D02*
X191009524Y-93452381D01*
X190580952Y-94452381D01*
D12*
X119030000Y-79650000D02*
X119000000Y-79580000D01*
X118970000Y-79550000D02*
X119030000Y-79650000D01*
X118990000Y-79530000D02*
X118970000Y-79550000D01*
X118990000Y-95230000D02*
X118990000Y-79530000D01*
X173740000Y-95230000D02*
X118990000Y-95230000D01*
X173740000Y-79530000D02*
X173740000Y-95230000D01*
X119050000Y-79580000D02*
X173740000Y-79530000D01*
D11*
X140394761Y-94168571D02*
X140728095Y-94168571D01*
X140870952Y-94692381D02*
X140394761Y-94692381D01*
X140394761Y-93692381D01*
X140870952Y-93692381D01*
X141442380Y-94692381D02*
X141347142Y-94644762D01*
X141299523Y-94549524D01*
X141299523Y-93692381D01*
X142204286Y-94644762D02*
X142109048Y-94692381D01*
X141918571Y-94692381D01*
X141823333Y-94644762D01*
X141775714Y-94549524D01*
X141775714Y-94168571D01*
X141823333Y-94073333D01*
X141918571Y-94025714D01*
X142109048Y-94025714D01*
X142204286Y-94073333D01*
X142251905Y-94168571D01*
X142251905Y-94263810D01*
X141775714Y-94359048D01*
X143109048Y-94644762D02*
X143013810Y-94692381D01*
X142823333Y-94692381D01*
X142728095Y-94644762D01*
X142680476Y-94597143D01*
X142632857Y-94501905D01*
X142632857Y-94216190D01*
X142680476Y-94120952D01*
X142728095Y-94073333D01*
X142823333Y-94025714D01*
X143013810Y-94025714D01*
X143109048Y-94073333D01*
X143394762Y-94025714D02*
X143775714Y-94025714D01*
X143537619Y-93692381D02*
X143537619Y-94549524D01*
X143585238Y-94644762D01*
X143680476Y-94692381D01*
X143775714Y-94692381D01*
X144109048Y-94692381D02*
X144109048Y-94025714D01*
X144109048Y-94216190D02*
X144156667Y-94120952D01*
X144204286Y-94073333D01*
X144299524Y-94025714D01*
X144394763Y-94025714D01*
X144870953Y-94692381D02*
X144775715Y-94644762D01*
X144728096Y-94597143D01*
X144680477Y-94501905D01*
X144680477Y-94216190D01*
X144728096Y-94120952D01*
X144775715Y-94073333D01*
X144870953Y-94025714D01*
X145013811Y-94025714D01*
X145109049Y-94073333D01*
X145156668Y-94120952D01*
X145204287Y-94216190D01*
X145204287Y-94501905D01*
X145156668Y-94597143D01*
X145109049Y-94644762D01*
X145013811Y-94692381D01*
X144870953Y-94692381D01*
X146061430Y-94692381D02*
X146061430Y-93692381D01*
X146061430Y-94644762D02*
X145966192Y-94692381D01*
X145775715Y-94692381D01*
X145680477Y-94644762D01*
X145632858Y-94597143D01*
X145585239Y-94501905D01*
X145585239Y-94216190D01*
X145632858Y-94120952D01*
X145680477Y-94073333D01*
X145775715Y-94025714D01*
X145966192Y-94025714D01*
X146061430Y-94073333D01*
X146918573Y-94644762D02*
X146823335Y-94692381D01*
X146632858Y-94692381D01*
X146537620Y-94644762D01*
X146490001Y-94549524D01*
X146490001Y-94168571D01*
X146537620Y-94073333D01*
X146632858Y-94025714D01*
X146823335Y-94025714D01*
X146918573Y-94073333D01*
X146966192Y-94168571D01*
X146966192Y-94263810D01*
X146490001Y-94359048D01*
X147347144Y-94644762D02*
X147442382Y-94692381D01*
X147632858Y-94692381D01*
X147728097Y-94644762D01*
X147775716Y-94549524D01*
X147775716Y-94501905D01*
X147728097Y-94406667D01*
X147632858Y-94359048D01*
X147490001Y-94359048D01*
X147394763Y-94311429D01*
X147347144Y-94216190D01*
X147347144Y-94168571D01*
X147394763Y-94073333D01*
X147490001Y-94025714D01*
X147632858Y-94025714D01*
X147728097Y-94073333D01*
X149490002Y-94692381D02*
X148918573Y-94692381D01*
X149204287Y-94692381D02*
X149204287Y-93692381D01*
X149109049Y-93835238D01*
X149013811Y-93930476D01*
X148918573Y-93978095D01*
X149918573Y-94311429D02*
X150680478Y-94311429D01*
X151204287Y-94692381D02*
X151394763Y-94692381D01*
X151490002Y-94644762D01*
X151537621Y-94597143D01*
X151632859Y-94454286D01*
X151680478Y-94263810D01*
X151680478Y-93882857D01*
X151632859Y-93787619D01*
X151585240Y-93740000D01*
X151490002Y-93692381D01*
X151299525Y-93692381D01*
X151204287Y-93740000D01*
X151156668Y-93787619D01*
X151109049Y-93882857D01*
X151109049Y-94120952D01*
X151156668Y-94216190D01*
X151204287Y-94263810D01*
X151299525Y-94311429D01*
X151490002Y-94311429D01*
X151585240Y-94263810D01*
X151632859Y-94216190D01*
X151680478Y-94120952D01*
X152537621Y-93692381D02*
X152347144Y-93692381D01*
X152251906Y-93740000D01*
X152204287Y-93787619D01*
X152109049Y-93930476D01*
X152061430Y-94120952D01*
X152061430Y-94501905D01*
X152109049Y-94597143D01*
X152156668Y-94644762D01*
X152251906Y-94692381D01*
X152442383Y-94692381D01*
X152537621Y-94644762D01*
X152585240Y-94597143D01*
X152632859Y-94501905D01*
X152632859Y-94263810D01*
X152585240Y-94168571D01*
X152537621Y-94120952D01*
X152442383Y-94073333D01*
X152251906Y-94073333D01*
X152156668Y-94120952D01*
X152109049Y-94168571D01*
X152061430Y-94263810D01*
X137963808Y-93182381D02*
X137963808Y-92182381D01*
X137963808Y-92658571D02*
X138535237Y-92658571D01*
X138535237Y-93182381D02*
X138535237Y-92182381D01*
X139392380Y-93134762D02*
X139297142Y-93182381D01*
X139106665Y-93182381D01*
X139011427Y-93134762D01*
X138963808Y-93039524D01*
X138963808Y-92658571D01*
X139011427Y-92563333D01*
X139106665Y-92515714D01*
X139297142Y-92515714D01*
X139392380Y-92563333D01*
X139439999Y-92658571D01*
X139439999Y-92753810D01*
X138963808Y-92849048D01*
X140297142Y-93182381D02*
X140297142Y-92658571D01*
X140249523Y-92563333D01*
X140154285Y-92515714D01*
X139963808Y-92515714D01*
X139868570Y-92563333D01*
X140297142Y-93134762D02*
X140201904Y-93182381D01*
X139963808Y-93182381D01*
X139868570Y-93134762D01*
X139820951Y-93039524D01*
X139820951Y-92944286D01*
X139868570Y-92849048D01*
X139963808Y-92801429D01*
X140201904Y-92801429D01*
X140297142Y-92753810D01*
X140630475Y-92515714D02*
X141011427Y-92515714D01*
X140773332Y-92182381D02*
X140773332Y-93039524D01*
X140820951Y-93134762D01*
X140916189Y-93182381D01*
X141011427Y-93182381D01*
X142059047Y-93134762D02*
X142201904Y-93182381D01*
X142440000Y-93182381D01*
X142535238Y-93134762D01*
X142582857Y-93087143D01*
X142630476Y-92991905D01*
X142630476Y-92896667D01*
X142582857Y-92801429D01*
X142535238Y-92753810D01*
X142440000Y-92706190D01*
X142249523Y-92658571D01*
X142154285Y-92610952D01*
X142106666Y-92563333D01*
X142059047Y-92468095D01*
X142059047Y-92372857D01*
X142106666Y-92277619D01*
X142154285Y-92230000D01*
X142249523Y-92182381D01*
X142487619Y-92182381D01*
X142630476Y-92230000D01*
X143440000Y-93134762D02*
X143344762Y-93182381D01*
X143154285Y-93182381D01*
X143059047Y-93134762D01*
X143011428Y-93039524D01*
X143011428Y-92658571D01*
X143059047Y-92563333D01*
X143154285Y-92515714D01*
X143344762Y-92515714D01*
X143440000Y-92563333D01*
X143487619Y-92658571D01*
X143487619Y-92753810D01*
X143011428Y-92849048D01*
X144344762Y-93182381D02*
X144344762Y-92658571D01*
X144297143Y-92563333D01*
X144201905Y-92515714D01*
X144011428Y-92515714D01*
X143916190Y-92563333D01*
X144344762Y-93134762D02*
X144249524Y-93182381D01*
X144011428Y-93182381D01*
X143916190Y-93134762D01*
X143868571Y-93039524D01*
X143868571Y-92944286D01*
X143916190Y-92849048D01*
X144011428Y-92801429D01*
X144249524Y-92801429D01*
X144344762Y-92753810D01*
X144963809Y-93182381D02*
X144868571Y-93134762D01*
X144820952Y-93039524D01*
X144820952Y-92182381D01*
X146106667Y-93182381D02*
X146106667Y-92182381D01*
X146582857Y-92515714D02*
X146582857Y-93182381D01*
X146582857Y-92610952D02*
X146630476Y-92563333D01*
X146725714Y-92515714D01*
X146868572Y-92515714D01*
X146963810Y-92563333D01*
X147011429Y-92658571D01*
X147011429Y-93182381D01*
X147344762Y-92515714D02*
X147725714Y-92515714D01*
X147487619Y-92182381D02*
X147487619Y-93039524D01*
X147535238Y-93134762D01*
X147630476Y-93182381D01*
X147725714Y-93182381D01*
X148440001Y-93134762D02*
X148344763Y-93182381D01*
X148154286Y-93182381D01*
X148059048Y-93134762D01*
X148011429Y-93039524D01*
X148011429Y-92658571D01*
X148059048Y-92563333D01*
X148154286Y-92515714D01*
X148344763Y-92515714D01*
X148440001Y-92563333D01*
X148487620Y-92658571D01*
X148487620Y-92753810D01*
X148011429Y-92849048D01*
X148916191Y-93182381D02*
X148916191Y-92515714D01*
X148916191Y-92706190D02*
X148963810Y-92610952D01*
X149011429Y-92563333D01*
X149106667Y-92515714D01*
X149201906Y-92515714D01*
X149963811Y-93134762D02*
X149868573Y-93182381D01*
X149678096Y-93182381D01*
X149582858Y-93134762D01*
X149535239Y-93087143D01*
X149487620Y-92991905D01*
X149487620Y-92706190D01*
X149535239Y-92610952D01*
X149582858Y-92563333D01*
X149678096Y-92515714D01*
X149868573Y-92515714D01*
X149963811Y-92563333D01*
X150535239Y-93182381D02*
X150440001Y-93134762D01*
X150392382Y-93087143D01*
X150344763Y-92991905D01*
X150344763Y-92706190D01*
X150392382Y-92610952D01*
X150440001Y-92563333D01*
X150535239Y-92515714D01*
X150678097Y-92515714D01*
X150773335Y-92563333D01*
X150820954Y-92610952D01*
X150868573Y-92706190D01*
X150868573Y-92991905D01*
X150820954Y-93087143D01*
X150773335Y-93134762D01*
X150678097Y-93182381D01*
X150535239Y-93182381D01*
X151297144Y-92515714D02*
X151297144Y-93182381D01*
X151297144Y-92610952D02*
X151344763Y-92563333D01*
X151440001Y-92515714D01*
X151582859Y-92515714D01*
X151678097Y-92563333D01*
X151725716Y-92658571D01*
X151725716Y-93182381D01*
X152201906Y-92515714D02*
X152201906Y-93182381D01*
X152201906Y-92610952D02*
X152249525Y-92563333D01*
X152344763Y-92515714D01*
X152487621Y-92515714D01*
X152582859Y-92563333D01*
X152630478Y-92658571D01*
X152630478Y-93182381D01*
X153487621Y-93134762D02*
X153392383Y-93182381D01*
X153201906Y-93182381D01*
X153106668Y-93134762D01*
X153059049Y-93039524D01*
X153059049Y-92658571D01*
X153106668Y-92563333D01*
X153201906Y-92515714D01*
X153392383Y-92515714D01*
X153487621Y-92563333D01*
X153535240Y-92658571D01*
X153535240Y-92753810D01*
X153059049Y-92849048D01*
X154392383Y-93134762D02*
X154297145Y-93182381D01*
X154106668Y-93182381D01*
X154011430Y-93134762D01*
X153963811Y-93087143D01*
X153916192Y-92991905D01*
X153916192Y-92706190D01*
X153963811Y-92610952D01*
X154011430Y-92563333D01*
X154106668Y-92515714D01*
X154297145Y-92515714D01*
X154392383Y-92563333D01*
X154678097Y-92515714D02*
X155059049Y-92515714D01*
X154820954Y-92182381D02*
X154820954Y-93039524D01*
X154868573Y-93134762D01*
X154963811Y-93182381D01*
X155059049Y-93182381D01*
X148603333Y-65652381D02*
X148793809Y-65652381D01*
X148889048Y-65604762D01*
X148936667Y-65557143D01*
X149031905Y-65414286D01*
X149079524Y-65223810D01*
X149079524Y-64842857D01*
X149031905Y-64747619D01*
X148984286Y-64700000D01*
X148889048Y-64652381D01*
X148698571Y-64652381D01*
X148603333Y-64700000D01*
X148555714Y-64747619D01*
X148508095Y-64842857D01*
X148508095Y-65080952D01*
X148555714Y-65176190D01*
X148603333Y-65223810D01*
X148698571Y-65271429D01*
X148889048Y-65271429D01*
X148984286Y-65223810D01*
X149031905Y-65176190D01*
X149079524Y-65080952D01*
X149936667Y-64652381D02*
X149746190Y-64652381D01*
X149650952Y-64700000D01*
X149603333Y-64747619D01*
X149508095Y-64890476D01*
X149460476Y-65080952D01*
X149460476Y-65461905D01*
X149508095Y-65557143D01*
X149555714Y-65604762D01*
X149650952Y-65652381D01*
X149841429Y-65652381D01*
X149936667Y-65604762D01*
X149984286Y-65557143D01*
X150031905Y-65461905D01*
X150031905Y-65223810D01*
X149984286Y-65128571D01*
X149936667Y-65080952D01*
X149841429Y-65033333D01*
X149650952Y-65033333D01*
X149555714Y-65080952D01*
X149508095Y-65128571D01*
X149460476Y-65223810D01*
X186748571Y-64990952D02*
X186653333Y-64943333D01*
X186605714Y-64895714D01*
X186558095Y-64800476D01*
X186558095Y-64752857D01*
X186605714Y-64657619D01*
X186653333Y-64610000D01*
X186748571Y-64562381D01*
X186939048Y-64562381D01*
X187034286Y-64610000D01*
X187081905Y-64657619D01*
X187129524Y-64752857D01*
X187129524Y-64800476D01*
X187081905Y-64895714D01*
X187034286Y-64943333D01*
X186939048Y-64990952D01*
X186748571Y-64990952D01*
X186653333Y-65038571D01*
X186605714Y-65086190D01*
X186558095Y-65181429D01*
X186558095Y-65371905D01*
X186605714Y-65467143D01*
X186653333Y-65514762D01*
X186748571Y-65562381D01*
X186939048Y-65562381D01*
X187034286Y-65514762D01*
X187081905Y-65467143D01*
X187129524Y-65371905D01*
X187129524Y-65181429D01*
X187081905Y-65086190D01*
X187034286Y-65038571D01*
X186939048Y-64990952D01*
X188081905Y-65562381D02*
X187510476Y-65562381D01*
X187796190Y-65562381D02*
X187796190Y-64562381D01*
X187700952Y-64705238D01*
X187605714Y-64800476D01*
X187510476Y-64848095D01*
X148914286Y-58655714D02*
X148914286Y-59322381D01*
X148676190Y-58274762D02*
X148438095Y-58989048D01*
X149057143Y-58989048D01*
X149580952Y-58750952D02*
X149485714Y-58703333D01*
X149438095Y-58655714D01*
X149390476Y-58560476D01*
X149390476Y-58512857D01*
X149438095Y-58417619D01*
X149485714Y-58370000D01*
X149580952Y-58322381D01*
X149771429Y-58322381D01*
X149866667Y-58370000D01*
X149914286Y-58417619D01*
X149961905Y-58512857D01*
X149961905Y-58560476D01*
X149914286Y-58655714D01*
X149866667Y-58703333D01*
X149771429Y-58750952D01*
X149580952Y-58750952D01*
X149485714Y-58798571D01*
X149438095Y-58846190D01*
X149390476Y-58941429D01*
X149390476Y-59131905D01*
X149438095Y-59227143D01*
X149485714Y-59274762D01*
X149580952Y-59322381D01*
X149771429Y-59322381D01*
X149866667Y-59274762D01*
X149914286Y-59227143D01*
X149961905Y-59131905D01*
X149961905Y-58941429D01*
X149914286Y-58846190D01*
X149866667Y-58798571D01*
X149771429Y-58750952D01*
X186640476Y-58232381D02*
X187259524Y-58232381D01*
X186926190Y-58613333D01*
X187069048Y-58613333D01*
X187164286Y-58660952D01*
X187211905Y-58708571D01*
X187259524Y-58803810D01*
X187259524Y-59041905D01*
X187211905Y-59137143D01*
X187164286Y-59184762D01*
X187069048Y-59232381D01*
X186783333Y-59232381D01*
X186688095Y-59184762D01*
X186640476Y-59137143D01*
X187592857Y-58232381D02*
X188211905Y-58232381D01*
X187878571Y-58613333D01*
X188021429Y-58613333D01*
X188116667Y-58660952D01*
X188164286Y-58708571D01*
X188211905Y-58803810D01*
X188211905Y-59041905D01*
X188164286Y-59137143D01*
X188116667Y-59184762D01*
X188021429Y-59232381D01*
X187735714Y-59232381D01*
X187640476Y-59184762D01*
X187592857Y-59137143D01*
X186700476Y-52412381D02*
X187319524Y-52412381D01*
X186986190Y-52793333D01*
X187129048Y-52793333D01*
X187224286Y-52840952D01*
X187271905Y-52888571D01*
X187319524Y-52983810D01*
X187319524Y-53221905D01*
X187271905Y-53317143D01*
X187224286Y-53364762D01*
X187129048Y-53412381D01*
X186843333Y-53412381D01*
X186748095Y-53364762D01*
X186700476Y-53317143D01*
X187700476Y-52507619D02*
X187748095Y-52460000D01*
X187843333Y-52412381D01*
X188081429Y-52412381D01*
X188176667Y-52460000D01*
X188224286Y-52507619D01*
X188271905Y-52602857D01*
X188271905Y-52698095D01*
X188224286Y-52840952D01*
X187652857Y-53412381D01*
X188271905Y-53412381D01*
X149089524Y-53482381D02*
X148518095Y-53482381D01*
X148803809Y-53482381D02*
X148803809Y-52482381D01*
X148708571Y-52625238D01*
X148613333Y-52720476D01*
X148518095Y-52768095D01*
X149422857Y-52482381D02*
X150089524Y-52482381D01*
X149660952Y-53482381D01*
X140604286Y-64602381D02*
X140413809Y-64602381D01*
X140318571Y-64650000D01*
X140270952Y-64697619D01*
X140175714Y-64840476D01*
X140128095Y-65030952D01*
X140128095Y-65411905D01*
X140175714Y-65507143D01*
X140223333Y-65554762D01*
X140318571Y-65602381D01*
X140509048Y-65602381D01*
X140604286Y-65554762D01*
X140651905Y-65507143D01*
X140699524Y-65411905D01*
X140699524Y-65173810D01*
X140651905Y-65078571D01*
X140604286Y-65030952D01*
X140509048Y-64983333D01*
X140318571Y-64983333D01*
X140223333Y-65030952D01*
X140175714Y-65078571D01*
X140128095Y-65173810D01*
X141604286Y-64602381D02*
X141128095Y-64602381D01*
X141080476Y-65078571D01*
X141128095Y-65030952D01*
X141223333Y-64983333D01*
X141461429Y-64983333D01*
X141556667Y-65030952D01*
X141604286Y-65078571D01*
X141651905Y-65173810D01*
X141651905Y-65411905D01*
X141604286Y-65507143D01*
X141556667Y-65554762D01*
X141461429Y-65602381D01*
X141223333Y-65602381D01*
X141128095Y-65554762D01*
X141080476Y-65507143D01*
X102288571Y-65050952D02*
X102193333Y-65003333D01*
X102145714Y-64955714D01*
X102098095Y-64860476D01*
X102098095Y-64812857D01*
X102145714Y-64717619D01*
X102193333Y-64670000D01*
X102288571Y-64622381D01*
X102479048Y-64622381D01*
X102574286Y-64670000D01*
X102621905Y-64717619D01*
X102669524Y-64812857D01*
X102669524Y-64860476D01*
X102621905Y-64955714D01*
X102574286Y-65003333D01*
X102479048Y-65050952D01*
X102288571Y-65050952D01*
X102193333Y-65098571D01*
X102145714Y-65146190D01*
X102098095Y-65241429D01*
X102098095Y-65431905D01*
X102145714Y-65527143D01*
X102193333Y-65574762D01*
X102288571Y-65622381D01*
X102479048Y-65622381D01*
X102574286Y-65574762D01*
X102621905Y-65527143D01*
X102669524Y-65431905D01*
X102669524Y-65241429D01*
X102621905Y-65146190D01*
X102574286Y-65098571D01*
X102479048Y-65050952D01*
X103288571Y-64622381D02*
X103383810Y-64622381D01*
X103479048Y-64670000D01*
X103526667Y-64717619D01*
X103574286Y-64812857D01*
X103621905Y-65003333D01*
X103621905Y-65241429D01*
X103574286Y-65431905D01*
X103526667Y-65527143D01*
X103479048Y-65574762D01*
X103383810Y-65622381D01*
X103288571Y-65622381D01*
X103193333Y-65574762D01*
X103145714Y-65527143D01*
X103098095Y-65431905D01*
X103050476Y-65241429D01*
X103050476Y-65003333D01*
X103098095Y-64812857D01*
X103145714Y-64717619D01*
X103193333Y-64670000D01*
X103288571Y-64622381D01*
X140694286Y-58142381D02*
X140503809Y-58142381D01*
X140408571Y-58190000D01*
X140360952Y-58237619D01*
X140265714Y-58380476D01*
X140218095Y-58570952D01*
X140218095Y-58951905D01*
X140265714Y-59047143D01*
X140313333Y-59094762D01*
X140408571Y-59142381D01*
X140599048Y-59142381D01*
X140694286Y-59094762D01*
X140741905Y-59047143D01*
X140789524Y-58951905D01*
X140789524Y-58713810D01*
X140741905Y-58618571D01*
X140694286Y-58570952D01*
X140599048Y-58523333D01*
X140408571Y-58523333D01*
X140313333Y-58570952D01*
X140265714Y-58618571D01*
X140218095Y-58713810D01*
X141646667Y-58475714D02*
X141646667Y-59142381D01*
X141408571Y-58094762D02*
X141170476Y-58809048D01*
X141789524Y-58809048D01*
X102684286Y-58845714D02*
X102684286Y-59512381D01*
X102446190Y-58464762D02*
X102208095Y-59179048D01*
X102827143Y-59179048D01*
X103255714Y-59512381D02*
X103446190Y-59512381D01*
X103541429Y-59464762D01*
X103589048Y-59417143D01*
X103684286Y-59274286D01*
X103731905Y-59083810D01*
X103731905Y-58702857D01*
X103684286Y-58607619D01*
X103636667Y-58560000D01*
X103541429Y-58512381D01*
X103350952Y-58512381D01*
X103255714Y-58560000D01*
X103208095Y-58607619D01*
X103160476Y-58702857D01*
X103160476Y-58940952D01*
X103208095Y-59036190D01*
X103255714Y-59083810D01*
X103350952Y-59131429D01*
X103541429Y-59131429D01*
X103636667Y-59083810D01*
X103684286Y-59036190D01*
X103731905Y-58940952D01*
X140789524Y-53552381D02*
X140218095Y-53552381D01*
X140503809Y-53552381D02*
X140503809Y-52552381D01*
X140408571Y-52695238D01*
X140313333Y-52790476D01*
X140218095Y-52838095D01*
X141646667Y-52552381D02*
X141456190Y-52552381D01*
X141360952Y-52600000D01*
X141313333Y-52647619D01*
X141218095Y-52790476D01*
X141170476Y-52980952D01*
X141170476Y-53361905D01*
X141218095Y-53457143D01*
X141265714Y-53504762D01*
X141360952Y-53552381D01*
X141551429Y-53552381D01*
X141646667Y-53504762D01*
X141694286Y-53457143D01*
X141741905Y-53361905D01*
X141741905Y-53123810D01*
X141694286Y-53028571D01*
X141646667Y-52980952D01*
X141551429Y-52933333D01*
X141360952Y-52933333D01*
X141265714Y-52980952D01*
X141218095Y-53028571D01*
X141170476Y-53123810D01*
X103185715Y-53572381D02*
X102614286Y-53572381D01*
X102900000Y-53572381D02*
X102900000Y-52572381D01*
X102804762Y-52715238D01*
X102709524Y-52810476D01*
X102614286Y-52858095D01*
X147047143Y-67926666D02*
X147094762Y-67974285D01*
X147142381Y-68117142D01*
X147142381Y-68212380D01*
X147094762Y-68355238D01*
X146999524Y-68450476D01*
X146904286Y-68498095D01*
X146713810Y-68545714D01*
X146570952Y-68545714D01*
X146380476Y-68498095D01*
X146285238Y-68450476D01*
X146190000Y-68355238D01*
X146142381Y-68212380D01*
X146142381Y-68117142D01*
X146190000Y-67974285D01*
X146237619Y-67926666D01*
X146142381Y-67593333D02*
X146142381Y-66974285D01*
X146523333Y-67307619D01*
X146523333Y-67164761D01*
X146570952Y-67069523D01*
X146618571Y-67021904D01*
X146713810Y-66974285D01*
X146951905Y-66974285D01*
X147047143Y-67021904D01*
X147094762Y-67069523D01*
X147142381Y-67164761D01*
X147142381Y-67450476D01*
X147094762Y-67545714D01*
X147047143Y-67593333D01*
X147117143Y-61806666D02*
X147164762Y-61854285D01*
X147212381Y-61997142D01*
X147212381Y-62092380D01*
X147164762Y-62235238D01*
X147069524Y-62330476D01*
X146974286Y-62378095D01*
X146783810Y-62425714D01*
X146640952Y-62425714D01*
X146450476Y-62378095D01*
X146355238Y-62330476D01*
X146260000Y-62235238D01*
X146212381Y-62092380D01*
X146212381Y-61997142D01*
X146260000Y-61854285D01*
X146307619Y-61806666D01*
X146545714Y-60949523D02*
X147212381Y-60949523D01*
X146164762Y-61187619D02*
X146879048Y-61425714D01*
X146879048Y-60806666D01*
X147047143Y-55826666D02*
X147094762Y-55874285D01*
X147142381Y-56017142D01*
X147142381Y-56112380D01*
X147094762Y-56255238D01*
X146999524Y-56350476D01*
X146904286Y-56398095D01*
X146713810Y-56445714D01*
X146570952Y-56445714D01*
X146380476Y-56398095D01*
X146285238Y-56350476D01*
X146190000Y-56255238D01*
X146142381Y-56112380D01*
X146142381Y-56017142D01*
X146190000Y-55874285D01*
X146237619Y-55826666D01*
X146142381Y-54921904D02*
X146142381Y-55398095D01*
X146618571Y-55445714D01*
X146570952Y-55398095D01*
X146523333Y-55302857D01*
X146523333Y-55064761D01*
X146570952Y-54969523D01*
X146618571Y-54921904D01*
X146713810Y-54874285D01*
X146951905Y-54874285D01*
X147047143Y-54921904D01*
X147094762Y-54969523D01*
X147142381Y-55064761D01*
X147142381Y-55302857D01*
X147094762Y-55398095D01*
X147047143Y-55445714D01*
X100569643Y-67816666D02*
X100617262Y-67864285D01*
X100664881Y-68007142D01*
X100664881Y-68102380D01*
X100617262Y-68245238D01*
X100522024Y-68340476D01*
X100426786Y-68388095D01*
X100236310Y-68435714D01*
X100093452Y-68435714D01*
X99902976Y-68388095D01*
X99807738Y-68340476D01*
X99712500Y-68245238D01*
X99664881Y-68102380D01*
X99664881Y-68007142D01*
X99712500Y-67864285D01*
X99760119Y-67816666D01*
X100664881Y-66864285D02*
X100664881Y-67435714D01*
X100664881Y-67150000D02*
X99664881Y-67150000D01*
X99807738Y-67245238D01*
X99902976Y-67340476D01*
X99950595Y-67435714D01*
X100677143Y-61506666D02*
X100724762Y-61554285D01*
X100772381Y-61697142D01*
X100772381Y-61792380D01*
X100724762Y-61935238D01*
X100629524Y-62030476D01*
X100534286Y-62078095D01*
X100343810Y-62125714D01*
X100200952Y-62125714D01*
X100010476Y-62078095D01*
X99915238Y-62030476D01*
X99820000Y-61935238D01*
X99772381Y-61792380D01*
X99772381Y-61697142D01*
X99820000Y-61554285D01*
X99867619Y-61506666D01*
X99867619Y-61125714D02*
X99820000Y-61078095D01*
X99772381Y-60982857D01*
X99772381Y-60744761D01*
X99820000Y-60649523D01*
X99867619Y-60601904D01*
X99962857Y-60554285D01*
X100058095Y-60554285D01*
X100200952Y-60601904D01*
X100772381Y-61173333D01*
X100772381Y-60554285D01*
X100487143Y-55716666D02*
X100534762Y-55764285D01*
X100582381Y-55907142D01*
X100582381Y-56002380D01*
X100534762Y-56145238D01*
X100439524Y-56240476D01*
X100344286Y-56288095D01*
X100153810Y-56335714D01*
X100010952Y-56335714D01*
X99820476Y-56288095D01*
X99725238Y-56240476D01*
X99630000Y-56145238D01*
X99582381Y-56002380D01*
X99582381Y-55907142D01*
X99630000Y-55764285D01*
X99677619Y-55716666D01*
X99582381Y-54859523D02*
X99582381Y-55050000D01*
X99630000Y-55145238D01*
X99677619Y-55192857D01*
X99820476Y-55288095D01*
X100010952Y-55335714D01*
X100391905Y-55335714D01*
X100487143Y-55288095D01*
X100534762Y-55240476D01*
X100582381Y-55145238D01*
X100582381Y-54954761D01*
X100534762Y-54859523D01*
X100487143Y-54811904D01*
X100391905Y-54764285D01*
X100153810Y-54764285D01*
X100058571Y-54811904D01*
X100010952Y-54859523D01*
X99963333Y-54954761D01*
X99963333Y-55145238D01*
X100010952Y-55240476D01*
X100058571Y-55288095D01*
X100153810Y-55335714D01*
D13*
X142350000Y-56930000D02*
X142350000Y-54270000D01*
X104190000Y-56930000D02*
X142350000Y-56930000D01*
X104190000Y-54270000D02*
X142350000Y-54270000D01*
X104190000Y-56930000D02*
X104190000Y-54270000D01*
X102920000Y-56930000D02*
X101590000Y-56930000D01*
X101590000Y-56930000D02*
X101590000Y-55600000D01*
X188740000Y-56930000D02*
X188740000Y-54270000D01*
X150580000Y-56930000D02*
X188740000Y-56930000D01*
X150580000Y-54270000D02*
X188740000Y-54270000D01*
X150580000Y-56930000D02*
X150580000Y-54270000D01*
X149310000Y-56930000D02*
X147980000Y-56930000D01*
X147980000Y-56930000D02*
X147980000Y-55600000D01*
X147980000Y-59980000D02*
X147980000Y-62640000D01*
X186140000Y-59980000D02*
X147980000Y-59980000D01*
X186140000Y-62640000D02*
X147980000Y-62640000D01*
X186140000Y-59980000D02*
X186140000Y-62640000D01*
X187410000Y-59980000D02*
X188740000Y-59980000D01*
X188740000Y-59980000D02*
X188740000Y-61310000D01*
X142350000Y-62640280D02*
X142350000Y-59980280D01*
X104190000Y-62640280D02*
X142350000Y-62640280D01*
X104190000Y-59980280D02*
X142350000Y-59980280D01*
X104190000Y-62640280D02*
X104190000Y-59980280D01*
X102920000Y-62640280D02*
X101590000Y-62640280D01*
X101590000Y-62640280D02*
X101590000Y-61310280D01*
X101580000Y-66327460D02*
X101580000Y-68987460D01*
X139740000Y-66327460D02*
X101580000Y-66327460D01*
X139740000Y-68987460D02*
X101580000Y-68987460D01*
X139740000Y-66327460D02*
X139740000Y-68987460D01*
X141010000Y-66327460D02*
X142340000Y-66327460D01*
X142340000Y-66327460D02*
X142340000Y-67657460D01*
X147960000Y-66330000D02*
X147960000Y-68990000D01*
X186120000Y-66330000D02*
X147960000Y-66330000D01*
X186120000Y-68990000D02*
X147960000Y-68990000D01*
X186120000Y-66330000D02*
X186120000Y-68990000D01*
X187390000Y-66330000D02*
X188720000Y-66330000D01*
X188720000Y-66330000D02*
X188720000Y-67660000D01*
X185840000Y-95120000D02*
X188500000Y-95120000D01*
X185840000Y-95060000D02*
X185840000Y-95120000D01*
X188500000Y-95060000D02*
X188500000Y-95120000D01*
X185840000Y-95060000D02*
X188500000Y-95060000D01*
X185840000Y-93790000D02*
X185840000Y-92460000D01*
X185840000Y-92460000D02*
X187170000Y-92460000D01*
X185840000Y-83780000D02*
X188500000Y-83780000D01*
X185840000Y-83720000D02*
X185840000Y-83780000D01*
X188500000Y-83720000D02*
X188500000Y-83780000D01*
X185840000Y-83720000D02*
X188500000Y-83720000D01*
X185840000Y-82450000D02*
X185840000Y-81120000D01*
X185840000Y-81120000D02*
X187170000Y-81120000D01*
X185940000Y-89670000D02*
X188600000Y-89670000D01*
X185940000Y-89610000D02*
X185940000Y-89670000D01*
X188600000Y-89610000D02*
X188600000Y-89670000D01*
X185940000Y-89610000D02*
X188600000Y-89610000D01*
X185940000Y-88340000D02*
X185940000Y-87010000D01*
X185940000Y-87010000D02*
X187270000Y-87010000D01*
M02*
