M48
INCH,TZ
T1C0.016
T2C0.039
%
G90
G05
T1
X33250Y-30900
X34250Y-34600
X36250Y-33750
X36750Y-34600
X37250Y-34600
X37750Y-30900
X37750Y-34600
X38250Y-30900
X38572Y-34827
X38750Y-30900
X47150Y-38500
X47150Y-44000
X48000Y-33750
X48400Y-23750
X48400Y-24250
X48400Y-24750
X48400Y-25250
X48400Y-25750
X48400Y-26250
X48400Y-26750
X48400Y-27250
X48400Y-27750
X48400Y-28250
X48400Y-28250
X49000Y-29500
X49000Y-34000
X49965Y-33465
X50276Y-34789
X50850Y-38500
X50850Y-43000
X51250Y-34000
X51500Y-32000
X51515Y-43985
X52000Y-34000
X52100Y-22750
X54840Y-44227
X55000Y-45000
X56000Y-45500
X56650Y-38500
X56650Y-40500
X56650Y-41000
X56650Y-41500
X56650Y-42000
X56650Y-42500
X56650Y-44000
X57000Y-46500
X57500Y-46500
X59000Y-37750
X60350Y-43000
X63000Y-44500
X64384Y-44116
X64500Y-33750
X64634Y-36000
X65691Y-43694
X65706Y-43709
X65750Y-30750
X65900Y-38250
X65900Y-42750
X66150Y-23750
X66150Y-24250
X66150Y-24750
X66150Y-25250
X66150Y-25750
X66150Y-26250
X66150Y-26750
X66150Y-27250
X66150Y-27750
X66150Y-28250
X66500Y-46000
X68500Y-31500
X68500Y-34000
X68750Y-43750
X69000Y-46000
X69600Y-38250
X69600Y-42750
X69600Y-42750
X69850Y-22750
X77000Y-35250
X78750Y-34500
X79205Y-34795
X79750Y-34500
X80250Y-30799
X80250Y-34500
X80750Y-31392
X80750Y-34500
X81250Y-30799
X81750Y-30799
X82250Y-30799
X82750Y-30799
X82750Y-34500
X83000Y-35412
X83750Y-34500
X83750Y-34500
T2
X42000Y-30500
X42000Y-32750
X42000Y-35250
X43000Y-30500
X43000Y-32750
X43000Y-35250
X44000Y-30500
X44000Y-32750
X44000Y-35250
X45000Y-30500
X45000Y-32750
X45000Y-35250
X46000Y-30500
X46000Y-32750
X46000Y-35250
X47000Y-30500
X47000Y-32750
X47000Y-35250
X48000Y-30500
X48000Y-32750
X48000Y-35250
X49000Y-30500
X49000Y-32750
X49000Y-35250
X50000Y-30500
X50000Y-32750
X50000Y-35250
X51000Y-30500
X51000Y-32750
X51000Y-35250
X52000Y-30500
X52000Y-32750
X52000Y-35250
X53000Y-30500
X53000Y-32750
X53000Y-35250
X54000Y-30500
X54000Y-32750
X54000Y-35250
X54750Y-47750
X55000Y-30500
X55000Y-32750
X55000Y-35250
X55750Y-47750
X56000Y-30500
X56000Y-32750
X56000Y-35250
X56750Y-47750
X57000Y-30500
X57000Y-32750
X57000Y-35250
X57750Y-47750
X58750Y-47750
X59750Y-47750
X60250Y-30500
X60250Y-32750
X60250Y-35250
X60750Y-47750
X61250Y-30500
X61250Y-32750
X61250Y-35250
X61750Y-47750
X62250Y-30500
X62250Y-32750
X62250Y-35250
X63250Y-30500
X63250Y-32750
X63250Y-35250
X64250Y-30500
X64250Y-32750
X64250Y-35250
X65250Y-30500
X65250Y-32750
X65250Y-35250
X66250Y-30500
X66250Y-32750
X66250Y-35250
X67250Y-30500
X67250Y-32750
X67250Y-35250
X68250Y-30500
X68250Y-32750
X68250Y-35250
X69250Y-30500
X69250Y-32750
X69250Y-35250
X70250Y-30500
X70250Y-32750
X70250Y-35250
X71250Y-30500
X71250Y-32750
X71250Y-35250
X72250Y-30500
X72250Y-32750
X72250Y-35250
X73250Y-30500
X73250Y-32750
X73250Y-35250
X74250Y-30500
X74250Y-32750
X74250Y-35250
X75250Y-30500
X75250Y-32750
X75250Y-35250
X77750Y-40500
X77750Y-43500
X77750Y-46500
T0
M30
